<svg width="80" height="80" viewBox="0 0 80 80" fill="none" xmlns="http://www.w3.org/2000/svg">
<g clip-path="url(#clip0_9733_353)">
<path d="M72.1875 0H7.8125C3.49778 0 0 3.49778 0 7.8125V72.1875C0 76.5022 3.49778 80 7.8125 80H72.1875C76.5022 80 80 76.5022 80 72.1875V7.8125C80 3.49778 76.5022 0 72.1875 0Z" fill="#3178C6"/>
<path d="M72.1875 0H7.8125C3.49778 0 0 3.49778 0 7.8125V72.1875C0 76.5022 3.49778 80 7.8125 80H72.1875C76.5022 80 80 76.5022 80 72.1875V7.8125C80 3.49778 76.5022 0 72.1875 0Z" fill="#3178C6"/>
<path fill-rule="evenodd" clip-rule="evenodd" d="M49.5217 63.66V71.482C50.7932 72.1339 52.2971 72.6227 54.0334 72.9486C55.7696 73.2745 57.5995 73.4375 59.5232 73.4375C61.3981 73.4375 63.179 73.2583 64.8663 72.8997C66.5537 72.5413 68.0332 71.9505 69.3048 71.1275C70.5763 70.3047 71.5831 69.2291 72.3248 67.9009C73.0665 66.5728 73.4374 64.9311 73.4374 62.9756C73.4374 61.5578 73.2256 60.3153 72.8017 59.248C72.3778 58.1806 71.7665 57.2314 70.9676 56.4003C70.1688 55.5692 69.211 54.8236 68.0943 54.1636C66.9776 53.5036 65.7182 52.8803 64.3162 52.2937C63.2892 51.87 62.3681 51.4586 61.5529 51.0594C60.7378 50.66 60.0449 50.2527 59.4743 49.8372C58.9037 49.4216 58.4635 48.9816 58.1538 48.5172C57.8442 48.0527 57.6892 47.5272 57.6892 46.9405C57.6892 46.4028 57.8278 45.918 58.1049 45.4861C58.3821 45.0542 58.7734 44.6836 59.2787 44.3739C59.7842 44.0644 60.4035 43.8239 61.1371 43.6528C61.8709 43.4817 62.6859 43.3962 63.5826 43.3962C64.2346 43.3962 64.9234 43.4452 65.6488 43.5428C66.3743 43.6406 67.1038 43.7914 67.8376 43.995C68.5712 44.1987 69.2843 44.4555 69.9773 44.765C70.6701 45.0747 71.3099 45.4331 71.8968 45.8406V38.5319C70.7068 38.0756 69.4067 37.7375 67.9965 37.5175C66.5863 37.2975 64.9682 37.1875 63.1424 37.1875C61.2838 37.1875 59.5232 37.3872 57.8604 37.7864C56.1976 38.1856 54.7345 38.8089 53.4709 39.6563C52.2074 40.5038 51.209 41.5833 50.4754 42.8952C49.7418 44.2069 49.3749 45.7753 49.3749 47.6005C49.3749 49.9308 50.0474 51.9189 51.3924 53.5648C52.7373 55.2106 54.7792 56.6039 57.5181 57.7447C58.594 58.1847 59.5967 58.6164 60.5259 59.0402C61.4551 59.4639 62.2581 59.9039 62.9345 60.3602C63.611 60.8164 64.1449 61.3134 64.5363 61.8512C64.9276 62.3889 65.1232 63 65.1232 63.6845C65.1232 64.1897 65.0009 64.6581 64.7563 65.09C64.5118 65.5219 64.1409 65.8966 63.6437 66.2144C63.1465 66.5322 62.527 66.7806 61.7853 66.9598C61.0434 67.1392 60.1754 67.2288 59.1809 67.2288C57.4854 67.2288 55.8063 66.9314 54.1434 66.3366C52.4806 65.7419 50.9399 64.8497 49.5217 63.66ZM36.3718 44.3878H46.4062V37.9688H18.4374V44.3878H28.4228V72.9688H36.3718V44.3878Z" fill="white"/>
</g>
<defs>
<clipPath id="clip0_9733_353">
<rect width="80" height="80" fill="white"/>
</clipPath>
</defs>
</svg>
